HIERARCHY
ROOT hip
{
  OFFSET 0 0 0
  CHANNELS 6 Xposition Yposition Zposition Zrotation Yrotation Xrotation
  JOINT abdomen
  {
    OFFSET 0 20.6881 -0.73152
    CHANNELS 3 Zrotation Xrotation Yrotation
    JOINT chest
    {
      OFFSET 0 11.7043 -0.48768
      CHANNELS 3 Zrotation Xrotation Yrotation
      JOINT neck
      {
        OFFSET 0 22.1894 -2.19456
        CHANNELS 3 Zrotation Xrotation Yrotation
        JOINT head
        {
          OFFSET -0.24384 7.07133 1.2192
          CHANNELS 3 Zrotation Xrotation Yrotation
          JOINT leftEye
          {
            OFFSET 4.14528 8.04674 8.04672
            CHANNELS 3 Zrotation Xrotation Yrotation
            End Site
            {
              OFFSET 1 0 0
            }
          }
          JOINT rightEye
          {
            OFFSET -3.6576 8.04674 8.04672
            CHANNELS 3 Zrotation Xrotation Yrotation
            End Site
            {
              OFFSET 1 0 0
            }
          }
        }
      }
      JOINT rCollar
      {
        OFFSET -2.68224 19.2634 -4.8768
        CHANNELS 3 Zrotation Xrotation Yrotation
        JOINT rShldr
        {
          OFFSET -8.77824 -1.95073 1.46304
          CHANNELS 3 Zrotation Xrotation Yrotation
          JOINT rForeArm
          {
            OFFSET -28.1742 -1.7115 0.48768
            CHANNELS 3 Zrotation Xrotation Yrotation
            JOINT rHand
            {
              OFFSET -22.5879 0.773209 7.07136
              CHANNELS 3 Zrotation Xrotation Yrotation
              JOINT rThumb1
              {
                OFFSET -1.2192 -0.487915 3.41376
                CHANNELS 3 Zrotation Xrotation Yrotation
                JOINT rThumb2
                {
                  OFFSET -3.37035 -0.52449 3.41376
                  CHANNELS 3 Zrotation Xrotation Yrotation
                  End Site
                  {
                    OFFSET -1.78271 -1.18214 1.43049
                  }
                }
              }
              JOINT rIndex1
              {
                OFFSET -7.75947 0.938293 5.60832
                CHANNELS 3 Zrotation Xrotation Yrotation
                JOINT rIndex2
                {
                  OFFSET -2.54057 -0.884171 1.56538
                  CHANNELS 3 Zrotation Xrotation Yrotation
                  End Site
                  {
                    OFFSET -1.62519 -0.234802 1.16502
                  }
                }
              }
              JOINT rMid1
              {
                OFFSET -8.24714 1.18213 3.41376
                CHANNELS 3 Zrotation Xrotation Yrotation
                JOINT rMid2
                {
                  OFFSET -3.10165 -0.590103 1.0647
                  CHANNELS 3 Zrotation Xrotation Yrotation
                  End Site
                  {
                    OFFSET -2.48547 -0.328903 0.83742
                  }
                }
              }
              JOINT rRing1
              {
                OFFSET -8.82822 0.546677 1.51678
                CHANNELS 3 Zrotation Xrotation Yrotation
                JOINT rRing2
                {
                  OFFSET -2.60934 -0.819778 -0.0198488
                  CHANNELS 3 Zrotation Xrotation Yrotation
                  End Site
                  {
                    OFFSET -2.33842 -0.294052 0.168128
                  }
                }
              }
              JOINT rPinky1
              {
                OFFSET -8.27202 -0.0477905 -0.4584
                CHANNELS 3 Zrotation Xrotation Yrotation
                JOINT rPinky2
                {
                  OFFSET -1.82734 -0.647385 -0.700984
                  CHANNELS 3 Zrotation Xrotation Yrotation
                  End Site
                  {
                    OFFSET -1.69225 -0.51767 -0.607171
                  }
                }
              }
            }
          }
        }
      }
      JOINT lCollar
      {
        OFFSET 2.68224 19.2634 -4.8768
        CHANNELS 3 Zrotation Xrotation Yrotation
        JOINT lShldr
        {
          OFFSET 8.77824 -1.95073 1.46304
          CHANNELS 3 Zrotation Xrotation Yrotation
          JOINT lForeArm
          {
            OFFSET 28.1742 -1.7115 0.48768
            CHANNELS 3 Zrotation Xrotation Yrotation
            JOINT lHand
            {
              OFFSET 22.5879 0.773209 7.07136
              CHANNELS 3 Zrotation Xrotation Yrotation
              JOINT lThumb1
              {
                OFFSET 1.2192 -0.487915 3.41376
                CHANNELS 3 Zrotation Xrotation Yrotation
                JOINT lThumb2
                {
                  OFFSET 3.37035 -0.52449 3.41376
                  CHANNELS 3 Zrotation Xrotation Yrotation
                  End Site
                  {
                    OFFSET 1.78271 -1.18214 1.43049
                  }
                }
              }
              JOINT lIndex1
              {
                OFFSET 7.75947 0.938293 5.60832
                CHANNELS 3 Zrotation Xrotation Yrotation
                JOINT lIndex2
                {
                  OFFSET 2.54057 -0.884171 1.56538
                  CHANNELS 3 Zrotation Xrotation Yrotation
                  End Site
                  {
                    OFFSET 1.62519 -0.234802 1.16502
                  }
                }
              }
              JOINT lMid1
              {
                OFFSET 8.24714 1.18213 3.41376
                CHANNELS 3 Zrotation Xrotation Yrotation
                JOINT lMid2
                {
                  OFFSET 3.10165 -0.590103 1.0647
                  CHANNELS 3 Zrotation Xrotation Yrotation
                  End Site
                  {
                    OFFSET 2.48547 -0.328903 0.83742
                  }
                }
              }
              JOINT lRing1
              {
                OFFSET 8.82822 0.546677 1.51678
                CHANNELS 3 Zrotation Xrotation Yrotation
                JOINT lRing2
                {
                  OFFSET 2.60934 -0.819778 -0.0198488
                  CHANNELS 3 Zrotation Xrotation Yrotation
                  End Site
                  {
                    OFFSET 2.33842 -0.294052 0.168128
                  }
                }
              }
              JOINT lPinky1
              {
                OFFSET 8.27202 -0.0477905 -0.4584
                CHANNELS 3 Zrotation Xrotation Yrotation
                JOINT lPinky2
                {
                  OFFSET 1.82734 -0.647385 -0.700984
                  CHANNELS 3 Zrotation Xrotation Yrotation
                  End Site
                  {
                    OFFSET 1.69225 -0.51767 -0.607171
                  }
                }
              }
            }
          }
        }
      }
    }
  }
  JOINT rButtock
  {
    OFFSET -8.77824 4.35084 1.2192
    CHANNELS 3 Zrotation Xrotation Yrotation
    JOINT rThigh
    {
      OFFSET 0 -1.70687 -2.19456
      CHANNELS 3 Zrotation Xrotation Yrotation
      JOINT rShin
      {
        OFFSET 0 -36.8199 0.73152
        CHANNELS 3 Zrotation Xrotation Yrotation
        JOINT rFoot
        {
          OFFSET 0.73152 -45.1104 -5.12064
          CHANNELS 3 Zrotation Xrotation Yrotation
          End Site
          {
            OFFSET -1.1221 -3.69964 12.103
          }
        }
      }
    }
  }
  JOINT lButtock
  {
    OFFSET 8.77824 4.35084 1.2192
    CHANNELS 3 Zrotation Xrotation Yrotation
    JOINT lThigh
    {
      OFFSET 0 -1.70687 -2.19456
      CHANNELS 3 Zrotation Xrotation Yrotation
      JOINT lShin
      {
        OFFSET 0 -36.8199 0.73152
        CHANNELS 3 Zrotation Xrotation Yrotation
        JOINT lFoot
        {
          OFFSET -0.73152 -45.1104 -5.12064
          CHANNELS 3 Zrotation Xrotation Yrotation
          End Site
          {
            OFFSET 1.1221 -3.69964 12.103
          }
        }
      }
    }
  }
}
MOTION
Frames:	7
Frame Time:	0.03333
0.0 0.0 0.0 0.0 0.0 0.0 0.0 0.0 0.0 0.0 0.0 0.0 0.0 0.0 0.0 0.0 0.0 0.0 0.0 0.0 0.0 0.0 0.0 0.0 0.0 0.0 0.0 0.0 0.0 0.0 0.0 0.0 0.0 0.0 0.0 0.0 0.0 0.0 0.0 0.0 0.0 0.0 0.0 0.0 0.0 0.0 0.0 0.0 0.0 0.0 0.0 0.0 0.0 0.0 0.0 0.0 0.0 0.0 0.0 0.0 0.0 0.0 0.0 0.0 0.0 0.0 0.0 0.0 0.0 0.0 0.0 0.0 0.0 0.0 0.0 0.0 0.0 0.0 0.0 0.0 0.0 0.0 0.0 0.0 0.0 0.0 0.0 0.0 0.0 0.0 0.0 0.0 0.0 0.0 0.0 0.0 0.0 0.0 0.0 0.0 0.0 0.0 0.0 0.0 0.0 0.0 0.0 0.0 0.0 0.0 0.0 0.0 0.0 0.0 0.0 0.0 0.0 0.0 0.0 0.0 0.0 0.0 0.0 0.0 0.0 0.0 0.0 0.0 0.0 0.0 0.0 0.0
-0.1833 65.1283 -0.09990000000000002 0.034202 14.686189 -0.892573 0.062706 3.246941 0.981671 10.358761 1.725949 -69.623634 9.044807 -17.499004 67.09484 -8.746094 -31.950337 -18.447003 119.7362 -17.340618 29.44061 -13.167555 -7.806448 61.17959 -92.828984 -48.653128 169.756199 2.519945 29.308761 -0.198118 9.233927 13.807138 90.382482 -67.719872 4.766376 5.588973 -170.536707 -5.970579 -11.767243 61.610151 67.272596 154.372981 151.654965 16.898967 -116.96634 10.628806 -33.239774 178.109339 141.1057 26.958126 -113.182259 19.775562 38.798092 -5.772489 -93.930635 34.398927 -83.62867 111.365574 80.544389 -77.982012 -5.389366 39.284319 -74.135162 54.195193 -5.08396 8.524056 -78.038695 20.188302 -7.768232 -5.644532 -26.63603 -4.46618 2.795568 14.83751 -161.731354 -80.562253 -63.823751 -1.435037 -5.806102 -6.912371 -39.746748 136.43273 -44.747107 -139.205999 -119.263766 -12.880319 -65.465214 92.647724 -87.306882 71.796371 34.140266 -36.844954 58.19231 101.4935 75.132949 53.654287 -94.386413 13.563487 35.298523 67.907995 -3.67526 123.580466 -50.622168 23.80142 67.308648 162.842171 27.929886 130.707443 69.336487 27.772197 99.623986 4.145903 73.046749 13.922212 3.559455 2.912901 128.593653 -79.319809 0.359261 100.260734 -17.927314 -52.104788 -23.446847 -0.801513 55.793906 -0.416365 5.158631 -0.49497 77.554846 -65.028744 -36.249046 105.009273
-2.6234 61.87820000000001 -2.8042000000000002 165.00966 73.225032 169.29907 -6.56348 9.323804 -165.512229 1.421364 7.481446 160.11945 -18.546532 27.00636 -61.598129 40.645705 4.109807 44.514256 14.825923 -0.196309 -1.508738 14.422686 1.283148 10.115084 -149.702547 20.845826 148.512013 -22.926951 20.974404 -0.838767 84.060791 -6.117813 -77.952259 -170.999202 50.322798 145.694111 0.134957 0.29444 4.470409 -25.430429 17.237326 8.936478 -158.743814 -12.570421 125.870415 -115.525321 -69.703706 148.548951 -16.012438 44.715251 21.240485 -8.756868 46.209434 -18.365053 -153.728437 18.438886 172.124538 -53.07217 -71.094689 -34.899784 12.056369 46.127939 -3.836059 -74.258386 77.419838 118.453805 144.568545 55.382563 -149.183495 -66.929004 -32.322869 -104.47233 10.303949 -23.385652 -89.249729 5.404385 -25.62108 11.875654 -41.104944 -49.60921 -17.429736 169.049439 3.18288 -137.180239 151.617079 -1.58591 -122.331252 173.456825 -63.725822 -105.143732 166.92436 -0.159848 -127.626154 127.068541 37.484503 -130.706949 107.034042 48.195825 -135.373451 -31.17121 -33.80887 -5.636905 -9.497716 39.329093 -22.950291 -159.335508 53.556332 97.331623 8.532336 1.685194 9.25941 -68.197808 -49.790623 -153.509276 -84.918867 -6.383394 -130.194586 -165.233739 6.681161 143.911159 78.047178 25.943391 46.801313 -73.707491 14.528092 175.232122 -40.50633 -53.794367 -107.776357 -29.896542 -38.12986 -120.069076
-3.4926 61.815200000000004 -2.5523000000000002 176.58253 77.14586 174.781012 -1.600128 15.457615 175.0444 0.102834 7.733347 177.371731 -0.084473 37.765876 137.703769 -35.976013 32.279462 -153.137596 -14.05372 -7.840521 58.145002 22.671087 -0.956801 -4.770264 -152.462216 3.135273 149.38708 157.277714 29.894533 -164.090679 -15.637596 -0.240248 72.155987 0.340253 32.857084 -1.43321 25.405812 -38.666876 9.875272 -88.009114 31.472764 96.139967 -147.07995 -9.321069 130.470669 -32.88966 71.483155 29.173786 -100.931429 68.981804 93.396777 158.275374 -8.715513 162.052232 -117.247289 5.791411 167.304563 100.044825 41.430197 -54.683268 -6.51036 2.194929 -27.524929 7.934254 28.843982 54.866175 0.002054 5.508725 5.464306 104.225163 -35.922364 -171.079786 -170.740321 -10.880262 88.156191 16.445434 -5.316901 0.426127 7.026326 -21.489186 11.462837 53.542513 23.787345 -70.557689 175.846768 -57.696247 -126.0366 -5.107917 10.623571 -31.532218 -147.296442 -55.198846 -118.434695 12.640694 -9.727466 15.948928 -13.113568 -1.55385 -0.965854 -165.3468 -35.774355 165.157323 146.665095 50.68456 135.056902 -5.09582 27.884882 24.236956 74.833508 48.133761 75.060703 -151.101078 19.356641 -13.069109 37.07151 71.674508 46.584088 -138.08349 39.399776 70.612123 -175.087606 78.054532 -4.287459 -131.257735 59.245594 103.342195 57.4805 -30.644329 143.051992 -115.293059 65.408396 -158.240004
-3.3721 61.5429 -1.9673 -176.226315 76.997267 -176.332916 0.030458 10.366115 173.65102 -2.405233 2.423272 175.3021 -23.229279 25.371433 -85.690933 44.10696 18.326942 58.279622 4.579905 0.368211 9.188216 21.617494 -3.033937 -15.794207 -134.29314 30.863554 125.769363 156.341721 -23.68727 168.673532 -10.494331 -20.538082 66.328514 -4.783776 16.20459 -3.203205 3.153389 26.658121 2.457336 -0.486406 -4.131225 4.987528 -69.016863 55.586398 88.161519 160.066784 74.978199 149.768518 -164.977564 -20.847439 141.647823 -33.010905 7.09472 7.184016 -113.740644 -2.434293 -173.729099 -79.696762 -29.46217 -143.233033 -143.769402 10.789196 -102.185931 -112.689118 33.194905 -116.05299 45.730269 81.455848 -46.061984 121.031681 3.27624 -99.207847 -4.500998 -10.585932 134.059365 164.927522 12.791191 -133.09168 165.207633 8.619672 -77.687021 158.44795 2.055115 -68.461975 -172.457331 -39.047148 -107.572856 151.886403 -21.014578 -109.981686 136.513988 43.704254 -103.473909 -5.689547 -9.804313 -46.795456 131.624161 23.755973 -158.455693 -32.636108 21.92217 3.351263 144.024456 35.420664 142.873122 101.980969 -37.803131 106.294701 39.687201 8.861723 -0.788725 -103.122875 -60.172783 168.477274 -75.756906 -31.938066 -157.292646 -125.578366 -38.456997 139.572158 -46.595354 83.723506 -136.753274 -114.975739 60.313845 -16.651391 60.856705 45.187276 51.65683 -153.674979 -47.517365 115.652467
-3.5214000000000003 60.0078 -0.9277000000000001 -175.761351 74.631678 -175.622684 2.870194 13.60132 -3.46553 -0.748867 -5.703955 -6.172663 -18.281321 15.977001 -41.177493 33.352398 -13.744011 13.341541 9.706721 0.202651 2.386309 15.206267 -1.570606 -11.725875 -111.180031 50.226923 106.446563 -178.166841 37.010418 146.028223 -92.317131 -0.451902 133.267911 35.760438 -57.985346 23.073536 -156.780006 -24.915682 104.546023 -114.578605 17.213807 59.476515 31.236779 -34.849891 -13.125509 -66.045033 15.172451 55.927096 0.806187 20.452572 4.784344 -171.989476 48.627852 165.484263 -141.745163 42.595161 -168.34211 122.23123 59.011246 -119.230174 95.835385 35.349971 -60.428906 101.895285 35.718356 -132.971046 151.985548 -39.811526 175.672074 -56.168534 61.00583 101.3971 95.811923 81.330658 159.030264 9.600604 -24.80794 13.469361 -177.064647 3.548115 -72.802174 66.389056 -27.778593 -1.644008 75.227911 33.524816 -60.377581 -164.335693 -47.451824 -132.077333 152.273001 30.518958 -124.27316 15.559904 -18.980523 -20.139847 83.664309 47.062615 -86.574585 -32.75976 -7.549861 -29.064113 -7.233164 -3.955323 -17.752909 157.858865 8.016819 126.169221 -107.047183 59.574135 -24.091008 128.652732 -26.956124 115.083068 82.503307 2.766917 69.833325 -116.583393 2.505854 169.617008 -52.367651 24.357581 -62.464083 87.805047 38.465919 -173.447693 58.952387 -50.368994 -56.692745 80.522417 -55.366986 -4.657427
-3.7823 59.2799 0.8531000000000001 -175.065985 74.98732 -174.98011 2.777001 15.843071 25.293372 -6.95451 -6.744257 -27.771552 -3.325392 15.418717 20.701191 -13.070965 -26.487841 -67.422644 16.645399 -1.398081 -9.535395 -7.977259 -1.249909 17.782241 -3.610323 1.899711 5.374248 -123.497451 12.153893 140.988333 -170.701164 19.876593 -111.784059 -2.245229 32.622499 -0.896123 174.991409 -44.176236 95.244277 -3.539637 -55.76417 -16.974016 -2.186298 -33.532256 0.791092 -168.90379 -48.594355 98.680048 -151.98875 4.364289 136.842171 10.065404 18.847214 19.704023 -144.916902 38.540086 174.724807 158.450041 -81.995584 154.355012 93.418454 49.971442 -54.204025 98.69344 51.010181 -126.484778 1.035697 -6.304941 2.258062 97.596174 -7.996676 169.949612 -159.909151 -44.242743 94.424125 16.607002 -0.887539 8.567952 168.132379 11.650022 -77.155634 -16.699713 -68.959424 -26.97817 157.902098 -40.300114 -113.978944 159.131294 -71.684454 -83.795321 22.317217 24.197608 -15.721616 57.341512 52.49036 -66.773963 -138.461611 -78.881089 -132.258816 41.905654 -40.883356 51.466443 97.204273 31.723619 -172.681875 -39.139426 -32.285135 26.197197 1.831565 -1.484791 -6.838564 -39.865066 -61.953544 -108.405069 -72.414809 18.455438 151.999516 -114.239389 45.607676 46.807805 116.148473 69.147828 66.550552 -123.86862 50.892969 -163.059043 -65.969879 -59.652418 7.867551 56.256559 -31.674832 128.285089
